<svg width="17" height="9" viewBox="0 0 17 9" fill="none" xmlns="http://www.w3.org/2000/svg">
<path d="M4.45781 8.84886C4.54848 8.84886 4.63915 8.81415 4.70857 8.74544L12.8489 0.604398C12.987 0.46627 12.987 0.241724 12.8489 0.103596C12.7108 -0.034532 12.4862 -0.034532 12.3481 0.103596L4.45781 7.99388L0.604398 4.14047C0.46627 4.00234 0.241724 4.00234 0.103596 4.14047C-0.034532 4.2786 -0.034532 4.50314 0.103596 4.64127L4.20706 8.74544C4.27647 8.81415 4.36714 8.84886 4.45781 8.84886Z" fill="#FED71A"/>
<path d="M16.3948 0.103596L8.25447 8.24464C8.11635 8.38277 8.11635 8.60731 8.25447 8.74544C8.32389 8.81486 8.41456 8.84886 8.50523 8.84886C8.5959 8.84886 8.68657 8.81415 8.75599 8.74544L16.8963 0.604398C17.0344 0.46627 17.0344 0.241724 16.8963 0.103596C16.7582 -0.034532 16.5336 -0.034532 16.3948 0.103596Z" fill="#FED71A"/>
</svg>
