<svg width="88" height="74" viewBox="0 0 88 74" fill="none" xmlns="http://www.w3.org/2000/svg">
<path d="M77.124 73.9999H10.3276C7.67024 73.9999 5.12175 72.9368 3.24274 71.0444C1.36372 69.152 0.308105 66.5853 0.308105 63.909V10.0909C0.308105 7.41463 1.36372 4.84797 3.24274 2.95556C5.12175 1.06315 7.67024 0 10.3276 0H77.124C79.7813 0 82.3298 1.06315 84.2088 2.95556C86.0878 4.84797 87.1434 7.41463 87.1434 10.0909V63.909C87.1434 66.5853 86.0878 69.152 84.2088 71.0444C82.3298 72.9368 79.7813 73.9999 77.124 73.9999ZM10.3276 6.72727C9.44179 6.72727 8.59229 7.08165 7.96596 7.71245C7.33962 8.34326 6.98775 9.19881 6.98775 10.0909V63.909C6.98775 64.8011 7.33962 65.6567 7.96596 66.2875C8.59229 66.9183 9.44179 67.2727 10.3276 67.2727H77.124C78.0097 67.2727 78.8592 66.9183 79.4856 66.2875C80.1119 65.6567 80.4638 64.8011 80.4638 63.909V10.0909C80.4638 9.19881 80.1119 8.34326 79.4856 7.71245C78.8592 7.08165 78.0097 6.72727 77.124 6.72727H10.3276Z" fill="#919191"/>
<path d="M60.4243 33.6364C58.4426 33.6364 56.5054 33.0446 54.8577 31.9358C53.21 30.827 51.9258 29.251 51.1675 27.4071C50.4091 25.5632 50.2107 23.5343 50.5973 21.5769C50.9839 19.6194 51.9382 17.8214 53.3394 16.4102C54.7407 14.9989 56.526 14.0378 58.4695 13.6485C60.4131 13.2591 62.4277 13.459 64.2585 14.2227C66.0893 14.9865 67.6542 16.2799 68.7551 17.9393C69.8561 19.5987 70.4437 21.5497 70.4437 23.5455C70.4437 26.2218 69.3881 28.7884 67.5091 30.6808C65.6301 32.5733 63.0816 33.6364 60.4243 33.6364ZM60.4243 20.1819C59.7637 20.1819 59.118 20.3791 58.5687 20.7487C58.0195 21.1183 57.5914 21.6437 57.3387 22.2583C57.0859 22.8729 57.0197 23.5492 57.1486 24.2017C57.2775 24.8542 57.5956 25.4535 58.0626 25.9239C58.5297 26.3944 59.1248 26.7147 59.7727 26.8445C60.4205 26.9743 61.0921 26.9077 61.7023 26.6531C62.3126 26.3985 62.8342 25.9674 63.2012 25.4142C63.5682 24.8611 63.7641 24.2108 63.7641 23.5455C63.7641 22.6534 63.4122 21.7979 62.7859 21.167C62.1595 20.5362 61.31 20.1819 60.4243 20.1819Z" fill="#919191"/>
<path d="M77.1241 73.9998C76.574 73.9969 76.0332 73.8573 75.5496 73.5932C75.066 73.3292 74.6546 72.9489 74.3521 72.4862L59.8572 50.6226C59.5517 50.1647 59.1391 49.7895 58.6557 49.5301C58.1723 49.2707 57.6329 49.135 57.0852 49.135C56.5375 49.135 55.9981 49.2707 55.5147 49.5301C55.0313 49.7895 54.6187 50.1647 54.3131 50.6226L53.1776 52.3044C52.6556 52.9571 51.9104 53.39 51.0881 53.5183C50.2658 53.6467 49.4255 53.4612 48.7318 52.9983C48.0381 52.5353 47.541 51.8282 47.3379 51.0155C47.1347 50.2028 47.2401 49.3429 47.6335 48.6044L48.7356 46.8889C49.6496 45.5013 50.8903 44.363 52.3472 43.5755C53.8041 42.7881 55.4318 42.376 57.0852 42.376C58.7386 42.376 60.3663 42.7881 61.8232 43.5755C63.2801 44.363 64.5208 45.5013 65.4347 46.8889L79.8962 68.7862C80.3795 69.5277 80.5525 70.4316 80.3773 71.301C80.2022 72.1703 79.6931 72.9348 78.961 73.428C78.4232 73.8074 77.7807 74.0074 77.1241 73.9998Z" fill="#919191"/>
<path d="M10.327 73.9998C9.68708 73.9981 9.06108 73.8113 8.52352 73.4616C7.78046 72.979 7.25771 72.2194 7.06989 71.3493C6.88207 70.4791 7.0445 69.5695 7.52157 68.8198L28.3287 36.4616C29.2317 35.0563 30.4676 33.8993 31.9252 33.0949C33.3828 32.2904 35.0162 31.8638 36.6782 31.8535C38.3311 31.8528 39.9585 32.2641 41.4153 33.0505C42.8721 33.8369 44.1131 34.9741 45.0278 36.3607L66.4694 68.7862C66.8628 69.5247 66.9682 70.3845 66.765 71.1973C66.5619 72.01 66.0648 72.7171 65.3711 73.18C64.6774 73.643 63.8371 73.8284 63.0148 73.7001C62.1925 73.5717 61.4473 73.1388 60.9253 72.4861L39.4503 40.0944C39.1477 39.6317 38.7364 39.2514 38.2528 38.9873C37.7692 38.7233 37.2283 38.5836 36.6782 38.5807C36.1251 38.5872 35.5822 38.732 35.0983 39.0021C34.6145 39.2722 34.2048 39.6591 33.9062 40.128L13.1325 72.4525C12.8307 72.9262 12.4158 73.3161 11.9256 73.5864C11.4355 73.8567 10.8858 73.9988 10.327 73.9998Z" fill="#919191"/>
</svg>
