<svg width="41" height="34" viewBox="0 0 41 34" fill="none" xmlns="http://www.w3.org/2000/svg">
<path d="M35.5454 34H4.63636C3.40672 34 2.22744 33.5115 1.35796 32.642C0.488472 31.7725 0 30.5932 0 29.3636V4.63636C0 3.40672 0.488472 2.22744 1.35796 1.35796C2.22744 0.488472 3.40672 0 4.63636 0H35.5454C36.7751 0 37.9543 0.488472 38.8238 1.35796C39.6933 2.22744 40.1818 3.40672 40.1818 4.63636V29.3636C40.1818 30.5932 39.6933 31.7725 38.8238 32.642C37.9543 33.5115 36.7751 34 35.5454 34ZM4.63636 3.09091C4.22648 3.09091 3.83339 3.25373 3.54356 3.54356C3.25373 3.83339 3.09091 4.22648 3.09091 4.63636V29.3636C3.09091 29.7735 3.25373 30.1666 3.54356 30.4564C3.83339 30.7462 4.22648 30.9091 4.63636 30.9091H35.5454C35.9553 30.9091 36.3484 30.7462 36.6382 30.4564C36.928 30.1666 37.0909 29.7735 37.0909 29.3636V4.63636C37.0909 4.22648 36.928 3.83339 36.6382 3.54356C36.3484 3.25373 35.9553 3.09091 35.5454 3.09091H4.63636Z" fill="white"/>
<path d="M27.818 15.4544C26.901 15.4544 26.0046 15.1824 25.2422 14.673C24.4797 14.1635 23.8855 13.4394 23.5346 12.5923C23.1836 11.7451 23.0918 10.8129 23.2707 9.91349C23.4496 9.01413 23.8912 8.18801 24.5396 7.5396C25.188 6.89119 26.0141 6.44962 26.9135 6.27073C27.8129 6.09183 28.7451 6.18365 29.5923 6.53456C30.4394 6.88548 31.1635 7.47973 31.673 8.24218C32.1824 9.00462 32.4544 9.90102 32.4544 10.818C32.4544 12.0476 31.9659 13.2269 31.0964 14.0964C30.2269 14.9659 29.0476 15.4544 27.818 15.4544ZM27.818 9.27255C27.5123 9.27255 27.2135 9.36319 26.9594 9.53301C26.7052 9.70282 26.5072 9.94419 26.3902 10.2266C26.2732 10.509 26.2426 10.8197 26.3022 11.1195C26.3619 11.4193 26.5091 11.6947 26.7252 11.9108C26.9413 12.1269 27.2167 12.2741 27.5165 12.3338C27.8163 12.3934 28.127 12.3628 28.4094 12.2458C28.6918 12.1288 28.9332 11.9308 29.103 11.6766C29.2728 11.4225 29.3635 11.1237 29.3635 10.818C29.3635 10.4081 29.2006 10.015 28.9108 9.7252C28.621 9.43537 28.2279 9.27255 27.818 9.27255Z" fill="white"/>
<path d="M35.5457 33.9998C35.2912 33.9985 35.0409 33.9343 34.8171 33.813C34.5934 33.6917 34.403 33.517 34.263 33.3044L27.5557 23.2589C27.4144 23.0486 27.2234 22.8762 26.9997 22.757C26.776 22.6378 26.5265 22.5755 26.273 22.5755C26.0196 22.5755 25.77 22.6378 25.5463 22.757C25.3226 22.8762 25.1317 23.0486 24.9903 23.2589L24.4648 24.0317C24.2233 24.3315 23.8785 24.5304 23.4979 24.5894C23.1174 24.6484 22.7286 24.5632 22.4076 24.3505C22.0866 24.1378 21.8566 23.8129 21.7626 23.4395C21.6686 23.0661 21.7174 22.671 21.8994 22.3317L22.4094 21.5435C22.8323 20.9059 23.4064 20.3829 24.0806 20.0211C24.7547 19.6593 25.5079 19.47 26.273 19.47C27.0381 19.47 27.7913 19.6593 28.4655 20.0211C29.1396 20.3829 29.7137 20.9059 30.1366 21.5435L36.8285 31.6044C37.0521 31.9451 37.1322 32.3604 37.0511 32.7598C36.9701 33.1593 36.7345 33.5105 36.3957 33.7371C36.1468 33.9114 35.8496 34.0033 35.5457 33.9998Z" fill="white"/>
<path d="M4.63622 34C4.34009 33.9993 4.05042 33.9134 3.80167 33.7528C3.45783 33.531 3.21594 33.182 3.12903 32.7822C3.04212 32.3824 3.11728 31.9645 3.33804 31.62L12.9662 16.7528C13.3841 16.1071 13.956 15.5755 14.6305 15.2059C15.3049 14.8363 16.0608 14.6403 16.8298 14.6355C17.5947 14.6352 18.3477 14.8242 19.0219 15.1855C19.696 15.5468 20.2703 16.0693 20.6935 16.7064L30.6153 31.6046C30.7973 31.9439 30.8461 32.339 30.7521 32.7124C30.6581 33.0858 30.4281 33.4107 30.1071 33.6234C29.7861 33.8361 29.3972 33.9213 29.0167 33.8623C28.6362 33.8034 28.2914 33.6045 28.0498 33.3046L18.1126 18.4219C17.9726 18.2093 17.7822 18.0345 17.5584 17.9132C17.3347 17.7919 17.0844 17.7277 16.8298 17.7264C16.5739 17.7294 16.3227 17.7959 16.0988 17.92C15.8749 18.0441 15.6853 18.2219 15.5471 18.4373L5.9344 33.2891C5.79476 33.5068 5.60275 33.6859 5.37595 33.8101C5.14914 33.9343 4.8948 33.9996 4.63622 34Z" fill="white"/>
</svg>
