<svg width="129" height="53" viewBox="0 0 129 53" fill="none" xmlns="http://www.w3.org/2000/svg">
<path d="M4.18 51.12C3.64 51.12 3.13667 51.0333 2.67 50.86C2.21 50.68 1.81 50.4267 1.47 50.1C1.13 49.7733 0.863333 49.39 0.67 48.95C0.483333 48.51 0.39 48.0267 0.39 47.5C0.39 46.9733 0.483333 46.49 0.67 46.05C0.863333 45.61 1.13 45.2267 1.47 44.9C1.81667 44.5733 2.22 44.3233 2.68 44.15C3.14 43.97 3.64333 43.88 4.19 43.88C4.79667 43.88 5.34333 43.9867 5.83 44.2C6.32333 44.4067 6.73667 44.7133 7.07 45.12L6.03 46.08C5.79 45.8067 5.52333 45.6033 5.23 45.47C4.93667 45.33 4.61667 45.26 4.27 45.26C3.94333 45.26 3.64333 45.3133 3.37 45.42C3.09667 45.5267 2.86 45.68 2.66 45.88C2.46 46.08 2.30333 46.3167 2.19 46.59C2.08333 46.8633 2.03 47.1667 2.03 47.5C2.03 47.8333 2.08333 48.1367 2.19 48.41C2.30333 48.6833 2.46 48.92 2.66 49.12C2.86 49.32 3.09667 49.4733 3.37 49.58C3.64333 49.6867 3.94333 49.74 4.27 49.74C4.61667 49.74 4.93667 49.6733 5.23 49.54C5.52333 49.4 5.79 49.19 6.03 48.91L7.07 49.87C6.73667 50.2767 6.32333 50.5867 5.83 50.8C5.34333 51.0133 4.79333 51.12 4.18 51.12ZM8.12586 51V44H9.73586V48.56L13.0759 44H14.5959V51H12.9959V46.45L9.65586 51H8.12586ZM19.6488 51.12C19.1088 51.12 18.6054 51.0333 18.1388 50.86C17.6788 50.68 17.2788 50.4267 16.9387 50.1C16.5988 49.7733 16.3321 49.39 16.1388 48.95C15.9521 48.51 15.8588 48.0267 15.8588 47.5C15.8588 46.9733 15.9521 46.49 16.1388 46.05C16.3321 45.61 16.5988 45.2267 16.9387 44.9C17.2854 44.5733 17.6888 44.3233 18.1488 44.15C18.6088 43.97 19.1121 43.88 19.6588 43.88C20.2654 43.88 20.8121 43.9867 21.2988 44.2C21.7921 44.4067 22.2054 44.7133 22.5388 45.12L21.4988 46.08C21.2588 45.8067 20.9921 45.6033 20.6988 45.47C20.4054 45.33 20.0854 45.26 19.7388 45.26C19.4121 45.26 19.1121 45.3133 18.8388 45.42C18.5654 45.5267 18.3288 45.68 18.1288 45.88C17.9288 46.08 17.7721 46.3167 17.6588 46.59C17.5521 46.8633 17.4988 47.1667 17.4988 47.5C17.4988 47.8333 17.5521 48.1367 17.6588 48.41C17.7721 48.6833 17.9288 48.92 18.1288 49.12C18.3288 49.32 18.5654 49.4733 18.8388 49.58C19.1121 49.6867 19.4121 49.74 19.7388 49.74C20.0854 49.74 20.4054 49.6733 20.6988 49.54C20.9921 49.4 21.2588 49.19 21.4988 48.91L22.5388 49.87C22.2054 50.2767 21.7921 50.5867 21.2988 50.8C20.8121 51.0133 20.2621 51.12 19.6488 51.12ZM25.0363 51V44.95L25.4063 45.32H22.8063V44H28.8763V45.32H26.2763L26.6363 44.95V51H25.0363ZM31.3834 46.82H34.7534V48.08H31.3834V46.82ZM31.5034 49.7H35.3134V51H29.8934V44H35.1834V45.3H31.5034V49.7ZM36.622 51V44H37.962L40.942 48.94H40.232L43.162 44H44.502L44.512 51H42.992L42.982 46.33H43.272L40.922 50.26H40.202L37.802 46.33H38.142V51H36.622ZM49.6409 46.3C50.4875 46.3 51.1409 46.49 51.6009 46.87C52.0609 47.2433 52.2909 47.8067 52.2909 48.56C52.2909 49.36 52.0342 49.9667 51.5209 50.38C51.0142 50.7933 50.3109 51 49.4109 51H46.2509V44H47.8609V46.3H49.6409ZM49.3209 49.8C49.7342 49.8 50.0609 49.6967 50.3009 49.49C50.5409 49.2833 50.6609 48.9833 50.6609 48.59C50.6609 48.2033 50.5409 47.9267 50.3009 47.76C50.0675 47.5867 49.7409 47.5 49.3209 47.5H47.8609V49.8H49.3209ZM53.1809 51V44H54.7909V51H53.1809ZM62.7161 51.12C62.1628 51.12 61.6494 51.03 61.1761 50.85C60.7094 50.67 60.3028 50.4167 59.9561 50.09C59.6161 49.7633 59.3494 49.38 59.1561 48.94C58.9694 48.5 58.8761 48.02 58.8761 47.5C58.8761 46.98 58.9694 46.5 59.1561 46.06C59.3494 45.62 59.6194 45.2367 59.9661 44.91C60.3128 44.5833 60.7194 44.33 61.1861 44.15C61.6528 43.97 62.1594 43.88 62.7061 43.88C63.2594 43.88 63.7661 43.97 64.2261 44.15C64.6928 44.33 65.0961 44.5833 65.4361 44.91C65.7828 45.2367 66.0528 45.62 66.2461 46.06C66.4394 46.4933 66.5361 46.9733 66.5361 47.5C66.5361 48.02 66.4394 48.5033 66.2461 48.95C66.0528 49.39 65.7828 49.7733 65.4361 50.1C65.0961 50.42 64.6928 50.67 64.2261 50.85C63.7661 51.03 63.2628 51.12 62.7161 51.12ZM62.7061 49.74C63.0194 49.74 63.3061 49.6867 63.5661 49.58C63.8328 49.4733 64.0661 49.32 64.2661 49.12C64.4661 48.92 64.6194 48.6833 64.7261 48.41C64.8394 48.1367 64.8961 47.8333 64.8961 47.5C64.8961 47.1667 64.8394 46.8633 64.7261 46.59C64.6194 46.3167 64.4661 46.08 64.2661 45.88C64.0728 45.68 63.8428 45.5267 63.5761 45.42C63.3094 45.3133 63.0194 45.26 62.7061 45.26C62.3928 45.26 62.1028 45.3133 61.8361 45.42C61.5761 45.5267 61.3461 45.68 61.1461 45.88C60.9461 46.08 60.7894 46.3167 60.6761 46.59C60.5694 46.8633 60.5161 47.1667 60.5161 47.5C60.5161 47.8267 60.5694 48.13 60.6761 48.41C60.7894 48.6833 60.9428 48.92 61.1361 49.12C61.3361 49.32 61.5694 49.4733 61.8361 49.58C62.1028 49.6867 62.3928 49.74 62.7061 49.74ZM69.1964 51V44.95L69.5664 45.32H66.9664V44H73.0364V45.32H70.4364L70.7964 44.95V51H69.1964ZM77.3059 51.12C76.7526 51.12 76.2393 51.03 75.7659 50.85C75.2993 50.67 74.8926 50.4167 74.5459 50.09C74.2059 49.7633 73.9393 49.38 73.7459 48.94C73.5593 48.5 73.4659 48.02 73.4659 47.5C73.4659 46.98 73.5593 46.5 73.7459 46.06C73.9393 45.62 74.2093 45.2367 74.5559 44.91C74.9026 44.5833 75.3093 44.33 75.7759 44.15C76.2426 43.97 76.7493 43.88 77.2959 43.88C77.8493 43.88 78.3559 43.97 78.8159 44.15C79.2826 44.33 79.6859 44.5833 80.0259 44.91C80.3726 45.2367 80.6426 45.62 80.8359 46.06C81.0293 46.4933 81.1259 46.9733 81.1259 47.5C81.1259 48.02 81.0293 48.5033 80.8359 48.95C80.6426 49.39 80.3726 49.7733 80.0259 50.1C79.6859 50.42 79.2826 50.67 78.8159 50.85C78.3559 51.03 77.8526 51.12 77.3059 51.12ZM77.2959 49.74C77.6093 49.74 77.8959 49.6867 78.1559 49.58C78.4226 49.4733 78.6559 49.32 78.8559 49.12C79.0559 48.92 79.2093 48.6833 79.3159 48.41C79.4293 48.1367 79.4859 47.8333 79.4859 47.5C79.4859 47.1667 79.4293 46.8633 79.3159 46.59C79.2093 46.3167 79.0559 46.08 78.8559 45.88C78.6626 45.68 78.4326 45.5267 78.1659 45.42C77.8993 45.3133 77.6093 45.26 77.2959 45.26C76.9826 45.26 76.6926 45.3133 76.4259 45.42C76.1659 45.5267 75.9359 45.68 75.7359 45.88C75.5359 46.08 75.3793 46.3167 75.2659 46.59C75.1593 46.8633 75.1059 47.1667 75.1059 47.5C75.1059 47.8267 75.1593 48.13 75.2659 48.41C75.3793 48.6833 75.5326 48.92 75.7259 49.12C75.9259 49.32 76.1593 49.4733 76.4259 49.58C76.6926 49.6867 76.9826 49.74 77.2959 49.74ZM82.3739 51V44H88.7539V51H87.1439V44.95L87.5139 45.32H83.6139L83.9839 44.95V51H82.3739ZM90.5103 51.11C90.3903 51.11 90.2636 51.1 90.1303 51.08C90.0036 51.06 89.8636 51.0333 89.7103 51L89.8103 49.63C89.9036 49.6567 90.0003 49.67 90.1003 49.67C90.3736 49.67 90.587 49.56 90.7403 49.34C90.8936 49.1133 91.0036 48.79 91.0703 48.37C91.137 47.95 91.1803 47.44 91.2003 46.84L91.3003 44H96.6803V51H95.0803V44.95L95.4503 45.32H92.3603L92.6903 44.93L92.6303 46.78C92.6103 47.4667 92.5636 48.0767 92.4903 48.61C92.417 49.1433 92.3036 49.5967 92.1503 49.97C91.997 50.3433 91.787 50.6267 91.5203 50.82C91.2536 51.0133 90.917 51.11 90.5103 51.11ZM99.9186 46.82H103.289V48.08H99.9186V46.82ZM100.039 49.7H103.849V51H98.4286V44H103.719V45.3H100.039V49.7ZM109.957 44H111.577V51H109.957V44ZM106.777 51H105.157V44H106.777V51ZM110.077 48.13H106.657V46.76H110.077V48.13ZM113.331 51V44H114.941V48.56L118.281 44H119.801V51H118.201V46.45L114.861 51H113.331ZM125.534 51V48.79L125.934 49.14H124.014C123.407 49.14 122.884 49.04 122.444 48.84C122.004 48.64 121.667 48.35 121.434 47.97C121.2 47.59 121.084 47.1367 121.084 46.61C121.084 46.0633 121.207 45.5967 121.454 45.21C121.707 44.8167 122.06 44.5167 122.514 44.31C122.967 44.1033 123.5 44 124.114 44H127.134V51H125.534ZM121.104 51L122.844 48.49H124.484L122.814 51H121.104ZM125.534 48.27V44.9L125.934 45.32H124.154C123.694 45.32 123.34 45.4267 123.094 45.64C122.854 45.8533 122.734 46.17 122.734 46.59C122.734 46.9967 122.85 47.31 123.084 47.53C123.317 47.75 123.66 47.86 124.114 47.86H125.934L125.534 48.27Z" fill="#BA77D3"/>
<path fillRule="evenodd" clipRule="evenodd" d="M78.4702 7.29398C78.4702 6.19756 79.3283 5.3395 80.377 5.29184V5.24414H94.3922V5.29184C98.8256 5.3395 102.401 8.86713 102.401 13.2528C102.401 17.6385 98.7999 21.3056 94.2712 21.3056L87.337 21.3091C86.1929 21.4522 85.3348 22.3579 85.2395 23.502C85.2395 26.664 85.2395 29.8265 85.2395 32.9884C85.2395 34.3709 84.0953 35.4674 82.7129 35.4674C81.3305 35.4674 80.1864 34.3709 80.1864 32.9884C80.1864 29.2225 80.1864 25.4563 80.1864 21.6905C80.1864 19.2593 82.2362 17.2572 84.7151 17.2572C87.6228 17.2572 90.5311 17.2572 93.4388 17.2572C98.5307 17.0359 98.5521 9.51801 93.4388 9.29617H80.377C79.3483 9.2027 78.4702 8.35455 78.4702 7.29398Z" fill="#BA77D3"/>
<path fillRule="evenodd" clipRule="evenodd" d="M72.7974 0C74.2275 0 75.3716 1.14408 75.3716 2.57423C75.3716 3.95667 74.2275 5.10076 72.7974 5.10076C71.3673 5.10076 70.2231 3.95667 70.2231 2.57423C70.2231 1.14408 71.3673 0 72.7974 0Z" fill="#BA77D3"/>
<path fillRule="evenodd" clipRule="evenodd" d="M75.3239 5.62529V33.0836C75.3239 34.3707 74.3228 35.3718 73.0834 35.3718H72.4637C71.2242 35.3718 70.2231 34.3707 70.2231 33.0836V5.57764C70.8905 6.14968 71.7963 6.53105 72.7974 6.53105C73.7508 6.53105 74.6565 6.19733 75.3239 5.62529Z" fill="#BA77D3"/>
<path fillRule="evenodd" clipRule="evenodd" d="M45.4823 9.29583C44.3859 9.20047 43.5278 8.34241 43.5278 7.29364C43.5278 6.19722 44.3859 5.33916 45.4823 5.2915H59.4975C63.9308 5.33916 67.4585 8.8668 67.4585 13.2525C67.4585 17.6382 63.7925 21.3041 59.2638 21.3041L52.3946 21.3088C51.2505 21.4518 50.3924 22.3576 50.297 23.5017C50.297 26.6151 50.297 29.8409 50.297 32.9881C50.297 34.3706 49.2006 35.467 47.7705 35.467C46.3881 35.467 45.244 34.3706 45.244 32.9881C45.244 29.2221 45.244 25.456 45.244 21.6902C45.244 19.259 47.2938 17.2568 49.7727 17.2568C52.6806 17.2568 55.5885 17.2568 58.4964 17.2568C60.6893 17.1615 62.4054 15.3976 62.4054 13.2525C62.4054 11.0748 60.629 9.38854 58.4964 9.29583H58.4487H45.4823Z" fill="#BA77D3"/>
<path fillRule="evenodd" clipRule="evenodd" d="M125.998 29.9852C127.094 30.0805 128 30.9387 128 32.0351C128 33.1315 127.094 34.0372 125.998 34.1326H112.364C107.835 34.0372 104.165 30.3666 104.165 25.8856C104.165 23.4067 105.261 21.2138 107.025 19.6884C105.261 18.1629 104.165 15.97 104.165 13.4912C104.165 9.01015 107.835 5.3395 112.364 5.29184V5.24414H125.998V5.29184C127.094 5.3395 128 6.24526 128 7.34168C128 8.44145 127.082 9.3444 125.998 9.39152H113.365C111.172 9.48683 109.368 11.2983 109.361 13.4912C109.349 16.9762 113.365 17.5908 113.365 17.6385L125.855 17.5908C126.999 17.5865 127.952 18.4966 127.952 19.6407V19.6884V19.736C127.952 20.8801 126.999 21.7859 125.855 21.7859C121.692 21.7859 117.528 21.7859 113.365 21.7859C111.172 21.8812 109.361 23.6927 109.361 25.8856C109.361 28.0784 111.172 29.8899 113.365 29.9852H125.998Z" fill="#BA77D3"/>
<path fillRule="evenodd" clipRule="evenodd" d="M25.6809 7.04248C25.7774 3.99664 20.8048 4.33146 20.8662 7.04248V32.7311C20.7446 34.5809 21.1954 35.9095 23.5355 35.7201H34.357C37.4422 35.7561 37.7301 31.4496 34.357 31.3821H28.0916C25.6873 31.3821 25.6139 31.5715 25.6809 28.711V7.04248Z" fill="#BA77D3"/>
<path fillRule="evenodd" clipRule="evenodd" d="M1.35544 8.19073L6.00295 18.5851C6.62454 19.5787 6.71729 20.4702 6.11631 21.7326L1.20456 32.3736C-0.106406 36.2933 5.28847 36.7201 5.91552 33.6556L9.02611 26.1522C9.3386 25.0327 9.90821 24.7861 10.4624 26.2934L13.3998 33.6556C14.6285 37.0731 19.7424 35.9459 18.2361 32.5084L13.064 21.8726C12.4229 20.7782 12.4465 19.9125 13.2099 18.4195L18.1864 8.04566C19.413 4.63702 14.1496 3.30258 13.1614 7.23881L10.3935 14.0503C9.98947 15.2034 9.31962 14.739 9.08822 14.0144L6.48755 7.23881C5.19179 3.47188 -0.00731695 4.92868 1.35544 8.19073Z" fill="#BA77D3"/>
</svg>
