<svg width="19" height="19" viewBox="0 0 19 19" fill="none" xmlns="http://www.w3.org/2000/svg">
<path d="M17.7038 15.6712L14.0547 12.0221C14.8087 10.8858 15.25 9.52516 15.25 8.0625C15.25 4.09931 12.0257 0.875 8.0625 0.875C4.09931 0.875 0.875 4.09931 0.875 8.0625C0.875 12.0257 4.09931 15.25 8.0625 15.25C9.52516 15.25 10.8858 14.8087 12.0221 14.0547L15.6712 17.7038C16.2318 18.2652 17.1432 18.2652 17.7038 17.7038C18.2652 17.1425 18.2652 16.2325 17.7038 15.6712ZM3.03125 8.0625C3.03125 5.28813 5.28813 3.03125 8.0625 3.03125C10.8369 3.03125 13.0938 5.28813 13.0938 8.0625C13.0938 10.8369 10.8369 13.0938 8.0625 13.0938C5.28813 13.0938 3.03125 10.8369 3.03125 8.0625Z" fill="#DEDCDE"/>
</svg>
